<svg width="590" height="590" viewBox="0 0 590 590" fill="none" xmlns="http://www.w3.org/2000/svg">
<rect width="590" height="590" fill="#00DAA7"/>
<path d="M434.961 491.068C448.123 491.068 458.43 488.706 465.88 483.983C473.579 479.259 477.428 472.795 477.428 464.591C477.428 458.873 476.311 454.274 474.076 450.793C471.84 447.064 467.37 443.708 460.665 440.725C453.959 437.493 443.901 434.136 430.491 430.656C408.884 425.186 392.617 418.225 381.69 409.773C371.011 401.071 365.672 388.641 365.672 372.481C365.672 355.327 372.75 341.653 386.905 331.46C401.061 321.019 420.184 315.798 444.274 315.798C473.331 315.798 498.29 323.38 519.151 338.546L501.27 365.023C483.637 353.338 465.011 347.496 445.391 347.496C420.557 347.496 408.139 354.705 408.139 369.125C408.139 374.097 409.505 378.199 412.237 381.431C415.217 384.663 420.184 387.771 427.138 390.754C434.092 393.489 444.398 396.721 458.057 400.45C479.415 406.416 495.309 413.75 505.74 422.452C516.419 431.153 521.758 444.205 521.758 461.608C521.758 481.745 513.439 497.035 496.799 507.477C480.16 517.67 459.547 522.766 434.961 522.766C402.427 522.766 375.481 513.568 354.124 495.17L376.102 469.812C384.298 476.276 393.363 481.497 403.296 485.475C413.479 489.204 424.034 491.068 434.961 491.068Z" fill="#1E1E1E"/>
<path d="M521.759 461.607C521.759 444.205 516.419 431.153 505.74 422.451C495.636 414.022 480.403 406.875 460.043 401.012L458.058 400.449C445.252 396.953 435.393 393.894 428.481 391.272L427.139 390.754C420.185 387.77 415.218 384.662 412.238 381.431C409.591 378.3 408.226 374.352 408.143 369.588L408.139 369.124C408.139 354.705 420.557 347.495 445.391 347.495L446.31 347.5C465.287 347.676 483.331 353.336 500.443 364.478L501.27 365.023L519.151 338.545C498.616 323.617 474.11 316.036 445.634 315.803L444.275 315.797C420.185 315.797 401.062 321.018 386.906 331.46L386.248 331.94C372.531 342.081 365.672 355.595 365.672 372.481L365.676 373.235C365.84 389.028 371.178 401.206 381.69 409.772C392.618 418.225 408.885 425.186 430.491 430.656C443.902 434.136 453.96 437.492 460.665 440.724C467.37 443.707 471.84 447.064 474.076 450.793C476.311 454.273 477.428 458.873 477.428 464.591L477.417 465.355C477.184 473.197 473.338 479.406 465.88 483.982C458.43 488.706 448.123 491.068 434.961 491.068V489.195C447.932 489.195 457.841 486.862 464.878 482.401L464.889 482.393L464.901 482.386C472.111 477.962 475.555 472.068 475.555 464.591C475.555 459.099 474.48 454.889 472.5 451.805L472.484 451.78L472.47 451.756C470.527 448.515 466.474 445.359 459.904 442.435L459.852 442.412C453.313 439.26 443.395 435.94 430.02 432.468C408.305 426.97 391.76 419.929 380.545 411.253L380.525 411.239L380.507 411.224C369.314 402.104 363.799 389.095 363.799 372.481C363.799 354.712 371.177 340.478 385.811 329.94C400.387 319.196 419.939 313.924 444.275 313.924C473.675 313.924 499.031 321.604 520.252 337.031L521.716 338.094L501.783 367.609L500.236 366.584C482.884 355.086 464.614 349.368 445.391 349.368C433.094 349.368 424.176 351.164 418.393 354.522C412.765 357.79 410.013 362.579 410.013 369.124C410.013 373.722 411.263 377.363 413.647 380.196C416.365 383.126 421.029 386.092 427.847 389.02C434.276 391.546 443.66 394.523 456.033 397.95L458.551 398.643L458.562 398.645L460.559 399.211C481.028 405.106 496.536 412.339 506.924 420.999L507.446 421.432C518.32 430.575 523.632 444.081 523.632 461.607C523.632 482.37 514.997 498.268 497.795 509.063L497.786 509.068L497.778 509.073C480.777 519.488 459.804 524.639 434.961 524.639C402.052 524.639 374.651 515.324 352.901 496.589L351.478 495.363L375.858 467.234L377.262 468.341C385.305 474.684 394.203 479.811 403.963 483.722C413.93 487.37 424.259 489.195 434.961 489.195V491.068L433.937 491.062C423.374 490.949 413.161 489.087 403.297 485.474C393.363 481.497 384.298 476.276 376.103 469.812L354.124 495.17C375.148 513.279 401.587 522.476 433.44 522.759L434.961 522.766C459.163 522.766 479.515 517.827 496.017 507.95L496.8 507.476C513.179 497.197 521.497 482.221 521.752 462.547L521.759 461.607Z" fill="#1E1E1E"/>
<path d="M313.018 316.031C323.223 316.031 333.179 317.644 342.886 320.87L335.792 393.445H305.924V353.249C292.235 353.497 280.287 358.956 270.082 369.625C260.126 380.294 252.161 395.306 246.188 414.659V487.606H285.763V517.38H175.251V487.606H204.372V350.644H175.251V320.87H236.107L243.574 366.276C251.29 349.403 260.624 336.873 271.576 328.685C282.776 320.249 296.59 316.031 313.018 316.031Z" fill="#1E1E1E"/>
<path d="M313.018 314.158C323.424 314.158 333.58 315.803 343.477 319.092L344.896 319.563L337.491 395.318H304.051V355.191C291.699 355.879 280.85 361.08 271.443 370.911C261.789 381.261 253.97 395.899 248.061 414.946V485.733H287.637V519.254H173.378V485.733H202.499V352.517H173.378V318.996H237.697L244.459 360.118C251.747 345.719 260.395 334.706 270.454 327.186C282.032 318.467 296.258 314.158 313.018 314.158ZM313.018 316.031C296.591 316.031 282.777 320.249 271.576 328.685C260.625 336.873 251.29 349.403 243.574 366.275L236.107 320.869H175.251V350.644H204.372V487.606H175.251V517.381H285.764V487.606H246.188V414.659C252.161 395.306 260.126 380.294 270.082 369.625C280.287 358.956 292.234 353.497 305.924 353.249V393.445H335.793L342.886 320.869C333.482 317.744 323.844 316.134 313.974 316.036L313.018 316.031Z" fill="#1E1E1E"/>
<path d="M65.6792 479.727C65.6792 469.375 69.3023 460.576 76.5485 453.33C83.7947 446.084 92.5937 442.46 102.945 442.46C113.556 442.46 122.484 446.084 129.731 453.33C136.977 460.576 140.6 469.375 140.6 479.727C140.6 490.337 136.977 499.266 129.731 506.512C122.484 513.758 113.556 517.381 102.945 517.381C92.5937 517.381 83.7947 513.758 76.5485 506.512C69.3023 499.266 65.6792 490.337 65.6792 479.727Z" fill="#1E1E1E"/>
</svg>
