<svg width="1200" height="630" viewBox="0 0 1200 630" fill="none" xmlns="http://www.w3.org/2000/svg">
<rect width="1200" height="630" fill="#00DAA7"/>
<path d="M740.282 387.144C753.444 387.144 763.751 384.782 771.201 380.058C778.9 375.335 782.749 368.871 782.749 360.667C782.749 354.949 781.632 350.349 779.396 346.869C777.161 343.14 772.691 339.783 765.986 336.8C759.28 333.568 749.222 330.212 735.811 326.731C714.205 321.262 697.938 314.301 687.011 305.848C676.332 297.147 670.993 284.716 670.993 268.557C670.993 251.402 678.07 237.729 692.226 227.536C706.382 217.094 725.505 211.873 749.595 211.873C778.651 211.873 803.61 219.456 824.472 234.621L806.591 261.098C788.958 249.413 770.332 243.571 750.712 243.571C725.877 243.571 713.46 250.781 713.46 265.2C713.46 270.172 714.826 274.275 717.558 277.506C720.538 280.738 725.505 283.846 732.459 286.829C739.412 289.564 749.719 292.796 763.378 296.525C784.736 302.492 800.63 309.826 811.061 318.527C821.74 327.229 827.079 340.281 827.079 357.683C827.079 377.821 818.76 393.11 802.12 403.552C785.481 413.745 764.868 418.842 740.282 418.842C707.748 418.842 680.802 409.643 659.444 391.246L681.423 365.888C689.619 372.351 698.683 377.572 708.617 381.55C718.8 385.279 729.354 387.144 740.282 387.144Z" fill="white"/>
<path d="M827.08 357.683C827.08 340.28 821.74 327.228 811.061 318.527C800.956 310.098 785.724 302.951 765.364 297.088L763.379 296.525C750.573 293.028 740.714 289.97 733.802 287.348L732.459 286.829C725.506 283.846 720.539 280.738 717.558 277.506C714.912 274.375 713.547 270.428 713.464 265.664L713.46 265.2C713.46 250.781 725.878 243.571 750.712 243.571L751.631 243.575C770.608 243.752 788.652 249.411 805.764 260.554L806.591 261.098L824.472 234.621C803.937 219.693 779.431 212.112 750.954 211.879L749.595 211.873C725.506 211.873 706.383 217.094 692.227 227.536L691.569 228.016C677.851 238.157 670.993 251.67 670.993 268.556L670.996 269.311C671.161 285.103 676.499 297.282 687.011 305.848C697.939 314.3 714.206 321.262 735.812 326.732C749.223 330.212 759.281 333.568 765.986 336.8C772.691 339.783 777.161 343.139 779.396 346.868C781.631 350.349 782.749 354.948 782.749 360.666L782.738 361.431C782.505 369.273 778.659 375.482 771.201 380.058C763.751 384.781 753.444 387.144 740.282 387.144V385.271C753.252 385.271 763.161 382.938 770.199 378.476L770.21 378.469L770.221 378.462C777.432 374.038 780.876 368.144 780.876 360.666C780.876 355.175 779.801 350.964 777.821 347.881L777.805 347.856L777.79 347.831C775.848 344.591 771.795 341.435 765.224 338.511L765.173 338.487C758.634 335.336 748.716 332.015 735.341 328.544C713.626 323.046 697.081 316.005 685.865 307.329L685.846 307.315L685.828 307.3C674.635 298.179 669.12 285.17 669.12 268.556C669.12 250.788 676.497 236.554 691.132 226.016C705.708 215.271 725.26 210 749.595 210C778.995 210 804.352 217.679 825.573 233.106L827.037 234.17L807.104 263.685L805.556 262.659C788.205 251.161 769.935 245.444 750.712 245.444C738.415 245.444 729.497 247.24 723.713 250.598C718.085 253.866 715.333 258.655 715.333 265.2C715.333 269.797 716.584 273.439 718.968 276.272C721.685 279.202 726.35 282.167 733.168 285.095C739.597 287.622 748.981 290.599 761.354 294.026L763.872 294.718L763.883 294.721L765.88 295.287C786.349 301.181 801.857 308.415 812.245 317.075L812.767 317.507C823.641 326.651 828.953 340.157 828.953 357.683C828.953 378.445 820.318 394.344 803.116 405.138L803.107 405.144L803.099 405.149C786.098 415.563 765.124 420.714 740.282 420.714C707.373 420.714 679.971 411.399 658.222 392.665L656.799 391.438L681.179 363.309L682.583 364.417C690.626 370.76 699.524 375.887 709.284 379.798C719.251 383.446 729.58 385.271 740.282 385.271V387.144L739.258 387.138C728.695 387.025 718.482 385.163 708.618 381.55C698.684 377.572 689.619 372.351 681.423 365.887L659.445 391.245C680.469 409.355 706.907 418.552 738.761 418.835L740.282 418.841C764.484 418.841 784.836 413.902 801.337 404.025L802.12 403.552C818.5 393.273 826.817 378.297 827.073 358.623L827.08 357.683Z" fill="white"/>
<path d="M618.339 212.107C628.543 212.107 638.5 213.719 648.207 216.945L641.113 289.52H611.245V249.325C597.555 249.573 585.608 255.031 575.403 265.701C565.447 276.37 557.482 291.381 551.509 310.734V383.682H591.084V413.456H480.572V383.682H509.693V246.719H480.572V216.945H541.428L548.895 262.351C556.611 245.479 565.945 232.949 576.897 224.761C588.097 216.325 601.911 212.107 618.339 212.107Z" fill="white"/>
<path d="M618.338 210.234C628.744 210.234 638.9 211.879 648.797 215.167L650.216 215.639L642.812 291.394H609.372V251.267C597.02 251.955 586.171 257.155 576.764 266.987C567.11 277.336 559.291 291.975 553.381 311.022V381.809H592.958V415.329H478.699V381.809H507.82V248.592H478.699V215.072H543.018L549.78 256.194C557.068 241.794 565.716 230.781 575.775 223.261C587.353 214.543 601.579 210.234 618.338 210.234ZM618.338 212.107C601.911 212.107 588.097 216.324 576.897 224.76C565.945 232.948 556.611 245.479 548.895 262.351L541.428 216.945H480.572V246.719H509.693V383.682H480.572V413.456H591.084V383.682H551.508V310.735C557.482 291.381 565.447 276.37 575.403 265.7C585.608 255.031 597.555 249.573 611.245 249.324V289.521H641.114L648.207 216.945C638.803 213.82 629.165 212.209 619.294 212.112L618.338 212.107Z" fill="white"/>
<path d="M371 375.802C371 365.45 374.623 356.651 381.869 349.405C389.116 342.159 397.914 338.536 408.266 338.536C418.877 338.536 427.805 342.159 435.051 349.405C442.298 356.651 445.921 365.45 445.921 375.802C445.921 386.412 442.298 395.341 435.051 402.587C427.805 409.833 418.877 413.456 408.266 413.456C397.914 413.456 389.116 409.833 381.869 402.587C374.623 395.341 371 386.412 371 375.802Z" fill="white"/>
</svg>
